%TF.GenerationSoftware,KiCad,Pcbnew,9.0.7*%
%TF.CreationDate,2026-03-20T11:38:40-04:00*%
%TF.ProjectId,controller,636f6e74-726f-46c6-9c65-722e6b696361,2*%
%TF.SameCoordinates,Original*%
%TF.FileFunction,Legend,Bot*%
%TF.FilePolarity,Positive*%
%FSLAX46Y46*%
G04 Gerber Fmt 4.6, Leading zero omitted, Abs format (unit mm)*
G04 Created by KiCad (PCBNEW 9.0.7) date 2026-03-20 11:38:40*
%MOMM*%
%LPD*%
G01*
G04 APERTURE LIST*
%ADD10C,0.150000*%
%ADD11C,0.120000*%
G04 APERTURE END LIST*
D10*
X143547618Y-117454819D02*
X143547618Y-118264342D01*
X143547618Y-118264342D02*
X143499999Y-118359580D01*
X143499999Y-118359580D02*
X143452380Y-118407200D01*
X143452380Y-118407200D02*
X143357142Y-118454819D01*
X143357142Y-118454819D02*
X143166666Y-118454819D01*
X143166666Y-118454819D02*
X143071428Y-118407200D01*
X143071428Y-118407200D02*
X143023809Y-118359580D01*
X143023809Y-118359580D02*
X142976190Y-118264342D01*
X142976190Y-118264342D02*
X142976190Y-117454819D01*
X142547618Y-118407200D02*
X142404761Y-118454819D01*
X142404761Y-118454819D02*
X142166666Y-118454819D01*
X142166666Y-118454819D02*
X142071428Y-118407200D01*
X142071428Y-118407200D02*
X142023809Y-118359580D01*
X142023809Y-118359580D02*
X141976190Y-118264342D01*
X141976190Y-118264342D02*
X141976190Y-118169104D01*
X141976190Y-118169104D02*
X142023809Y-118073866D01*
X142023809Y-118073866D02*
X142071428Y-118026247D01*
X142071428Y-118026247D02*
X142166666Y-117978628D01*
X142166666Y-117978628D02*
X142357142Y-117931009D01*
X142357142Y-117931009D02*
X142452380Y-117883390D01*
X142452380Y-117883390D02*
X142499999Y-117835771D01*
X142499999Y-117835771D02*
X142547618Y-117740533D01*
X142547618Y-117740533D02*
X142547618Y-117645295D01*
X142547618Y-117645295D02*
X142499999Y-117550057D01*
X142499999Y-117550057D02*
X142452380Y-117502438D01*
X142452380Y-117502438D02*
X142357142Y-117454819D01*
X142357142Y-117454819D02*
X142119047Y-117454819D01*
X142119047Y-117454819D02*
X141976190Y-117502438D01*
X141214285Y-117931009D02*
X141071428Y-117978628D01*
X141071428Y-117978628D02*
X141023809Y-118026247D01*
X141023809Y-118026247D02*
X140976190Y-118121485D01*
X140976190Y-118121485D02*
X140976190Y-118264342D01*
X140976190Y-118264342D02*
X141023809Y-118359580D01*
X141023809Y-118359580D02*
X141071428Y-118407200D01*
X141071428Y-118407200D02*
X141166666Y-118454819D01*
X141166666Y-118454819D02*
X141547618Y-118454819D01*
X141547618Y-118454819D02*
X141547618Y-117454819D01*
X141547618Y-117454819D02*
X141214285Y-117454819D01*
X141214285Y-117454819D02*
X141119047Y-117502438D01*
X141119047Y-117502438D02*
X141071428Y-117550057D01*
X141071428Y-117550057D02*
X141023809Y-117645295D01*
X141023809Y-117645295D02*
X141023809Y-117740533D01*
X141023809Y-117740533D02*
X141071428Y-117835771D01*
X141071428Y-117835771D02*
X141119047Y-117883390D01*
X141119047Y-117883390D02*
X141214285Y-117931009D01*
X141214285Y-117931009D02*
X141547618Y-117931009D01*
X139214285Y-118359580D02*
X139261904Y-118407200D01*
X139261904Y-118407200D02*
X139404761Y-118454819D01*
X139404761Y-118454819D02*
X139499999Y-118454819D01*
X139499999Y-118454819D02*
X139642856Y-118407200D01*
X139642856Y-118407200D02*
X139738094Y-118311961D01*
X139738094Y-118311961D02*
X139785713Y-118216723D01*
X139785713Y-118216723D02*
X139833332Y-118026247D01*
X139833332Y-118026247D02*
X139833332Y-117883390D01*
X139833332Y-117883390D02*
X139785713Y-117692914D01*
X139785713Y-117692914D02*
X139738094Y-117597676D01*
X139738094Y-117597676D02*
X139642856Y-117502438D01*
X139642856Y-117502438D02*
X139499999Y-117454819D01*
X139499999Y-117454819D02*
X139404761Y-117454819D01*
X139404761Y-117454819D02*
X139261904Y-117502438D01*
X139261904Y-117502438D02*
X139214285Y-117550057D01*
X137547618Y-118454819D02*
X138023808Y-118454819D01*
X138023808Y-118454819D02*
X138023808Y-117454819D01*
X137214284Y-118454819D02*
X137214284Y-117788152D01*
X137214284Y-117454819D02*
X137261903Y-117502438D01*
X137261903Y-117502438D02*
X137214284Y-117550057D01*
X137214284Y-117550057D02*
X137166665Y-117502438D01*
X137166665Y-117502438D02*
X137214284Y-117454819D01*
X137214284Y-117454819D02*
X137214284Y-117550057D01*
X136738094Y-117788152D02*
X136738094Y-118788152D01*
X136738094Y-117835771D02*
X136642856Y-117788152D01*
X136642856Y-117788152D02*
X136452380Y-117788152D01*
X136452380Y-117788152D02*
X136357142Y-117835771D01*
X136357142Y-117835771D02*
X136309523Y-117883390D01*
X136309523Y-117883390D02*
X136261904Y-117978628D01*
X136261904Y-117978628D02*
X136261904Y-118264342D01*
X136261904Y-118264342D02*
X136309523Y-118359580D01*
X136309523Y-118359580D02*
X136357142Y-118407200D01*
X136357142Y-118407200D02*
X136452380Y-118454819D01*
X136452380Y-118454819D02*
X136642856Y-118454819D01*
X136642856Y-118454819D02*
X136738094Y-118407200D01*
X135690475Y-118454819D02*
X135785713Y-118407200D01*
X135785713Y-118407200D02*
X135833332Y-118359580D01*
X135833332Y-118359580D02*
X135880951Y-118264342D01*
X135880951Y-118264342D02*
X135880951Y-117978628D01*
X135880951Y-117978628D02*
X135833332Y-117883390D01*
X135833332Y-117883390D02*
X135785713Y-117835771D01*
X135785713Y-117835771D02*
X135690475Y-117788152D01*
X135690475Y-117788152D02*
X135547618Y-117788152D01*
X135547618Y-117788152D02*
X135452380Y-117835771D01*
X135452380Y-117835771D02*
X135404761Y-117883390D01*
X135404761Y-117883390D02*
X135357142Y-117978628D01*
X135357142Y-117978628D02*
X135357142Y-118264342D01*
X135357142Y-118264342D02*
X135404761Y-118359580D01*
X135404761Y-118359580D02*
X135452380Y-118407200D01*
X135452380Y-118407200D02*
X135547618Y-118454819D01*
X135547618Y-118454819D02*
X135690475Y-118454819D01*
X134404761Y-118454819D02*
X134976189Y-118454819D01*
X134690475Y-118454819D02*
X134690475Y-117454819D01*
X134690475Y-117454819D02*
X134785713Y-117597676D01*
X134785713Y-117597676D02*
X134880951Y-117692914D01*
X134880951Y-117692914D02*
X134976189Y-117740533D01*
X140571427Y-105954819D02*
X140571427Y-104954819D01*
X140095237Y-105954819D02*
X140095237Y-104954819D01*
X140095237Y-104954819D02*
X139761904Y-105669104D01*
X139761904Y-105669104D02*
X139428571Y-104954819D01*
X139428571Y-104954819D02*
X139428571Y-105954819D01*
X138952380Y-104954819D02*
X138952380Y-105764342D01*
X138952380Y-105764342D02*
X138904761Y-105859580D01*
X138904761Y-105859580D02*
X138857142Y-105907200D01*
X138857142Y-105907200D02*
X138761904Y-105954819D01*
X138761904Y-105954819D02*
X138571428Y-105954819D01*
X138571428Y-105954819D02*
X138476190Y-105907200D01*
X138476190Y-105907200D02*
X138428571Y-105859580D01*
X138428571Y-105859580D02*
X138380952Y-105764342D01*
X138380952Y-105764342D02*
X138380952Y-104954819D01*
X137380952Y-105954819D02*
X137952380Y-105954819D01*
X137666666Y-105954819D02*
X137666666Y-104954819D01*
X137666666Y-104954819D02*
X137761904Y-105097676D01*
X137761904Y-105097676D02*
X137857142Y-105192914D01*
X137857142Y-105192914D02*
X137952380Y-105240533D01*
X140953332Y-77454819D02*
X140953332Y-78264342D01*
X140953332Y-78264342D02*
X140905713Y-78359580D01*
X140905713Y-78359580D02*
X140858094Y-78407200D01*
X140858094Y-78407200D02*
X140762856Y-78454819D01*
X140762856Y-78454819D02*
X140572380Y-78454819D01*
X140572380Y-78454819D02*
X140477142Y-78407200D01*
X140477142Y-78407200D02*
X140429523Y-78359580D01*
X140429523Y-78359580D02*
X140381904Y-78264342D01*
X140381904Y-78264342D02*
X140381904Y-77454819D01*
X140000951Y-77454819D02*
X139762856Y-78454819D01*
X139762856Y-78454819D02*
X139572380Y-77740533D01*
X139572380Y-77740533D02*
X139381904Y-78454819D01*
X139381904Y-78454819D02*
X139143809Y-77454819D01*
X138429523Y-77931009D02*
X138286666Y-77978628D01*
X138286666Y-77978628D02*
X138239047Y-78026247D01*
X138239047Y-78026247D02*
X138191428Y-78121485D01*
X138191428Y-78121485D02*
X138191428Y-78264342D01*
X138191428Y-78264342D02*
X138239047Y-78359580D01*
X138239047Y-78359580D02*
X138286666Y-78407200D01*
X138286666Y-78407200D02*
X138381904Y-78454819D01*
X138381904Y-78454819D02*
X138762856Y-78454819D01*
X138762856Y-78454819D02*
X138762856Y-77454819D01*
X138762856Y-77454819D02*
X138429523Y-77454819D01*
X138429523Y-77454819D02*
X138334285Y-77502438D01*
X138334285Y-77502438D02*
X138286666Y-77550057D01*
X138286666Y-77550057D02*
X138239047Y-77645295D01*
X138239047Y-77645295D02*
X138239047Y-77740533D01*
X138239047Y-77740533D02*
X138286666Y-77835771D01*
X138286666Y-77835771D02*
X138334285Y-77883390D01*
X138334285Y-77883390D02*
X138429523Y-77931009D01*
X138429523Y-77931009D02*
X138762856Y-77931009D01*
X137239047Y-78454819D02*
X137810475Y-78454819D01*
X137524761Y-78454819D02*
X137524761Y-77454819D01*
X137524761Y-77454819D02*
X137619999Y-77597676D01*
X137619999Y-77597676D02*
X137715237Y-77692914D01*
X137715237Y-77692914D02*
X137810475Y-77740533D01*
D11*
%TO.C,USB C Lipo1*%
X132550000Y-116330000D02*
X132550000Y-113670000D01*
X142770000Y-113670000D02*
X132550000Y-113670000D01*
X142770000Y-116330000D02*
X132550000Y-116330000D01*
X142770000Y-116330000D02*
X142770000Y-113670000D01*
X145370000Y-113670000D02*
X144040000Y-113670000D01*
X145370000Y-115000000D02*
X145370000Y-113670000D01*
%TO.C,IMU1*%
X131295000Y-103830000D02*
X131295000Y-101170000D01*
X144055000Y-101170000D02*
X131295000Y-101170000D01*
X144055000Y-103830000D02*
X131295000Y-103830000D01*
X144055000Y-103830000D02*
X144055000Y-101170000D01*
X146655000Y-101170000D02*
X145325000Y-101170000D01*
X146655000Y-102500000D02*
X146655000Y-101170000D01*
%TO.C,UWB1*%
X131170000Y-76330000D02*
X131170000Y-73670000D01*
X143930000Y-73670000D02*
X131170000Y-73670000D01*
X143930000Y-76330000D02*
X131170000Y-76330000D01*
X143930000Y-76330000D02*
X143930000Y-73670000D01*
X146530000Y-73670000D02*
X145200000Y-73670000D01*
X146530000Y-75000000D02*
X146530000Y-73670000D01*
%TD*%
M02*
