%TF.GenerationSoftware,KiCad,Pcbnew,9.0.7*%
%TF.CreationDate,2026-03-20T11:38:40-04:00*%
%TF.ProjectId,controller,636f6e74-726f-46c6-9c65-722e6b696361,2*%
%TF.SameCoordinates,Original*%
%TF.FileFunction,Soldermask,Top*%
%TF.FilePolarity,Negative*%
%FSLAX46Y46*%
G04 Gerber Fmt 4.6, Leading zero omitted, Abs format (unit mm)*
G04 Created by KiCad (PCBNEW 9.0.7) date 2026-03-20 11:38:40*
%MOMM*%
%LPD*%
G01*
G04 APERTURE LIST*
G04 Aperture macros list*
%AMRoundRect*
0 Rectangle with rounded corners*
0 $1 Rounding radius*
0 $2 $3 $4 $5 $6 $7 $8 $9 X,Y pos of 4 corners*
0 Add a 4 corners polygon primitive as box body*
4,1,4,$2,$3,$4,$5,$6,$7,$8,$9,$2,$3,0*
0 Add four circle primitives for the rounded corners*
1,1,$1+$1,$2,$3*
1,1,$1+$1,$4,$5*
1,1,$1+$1,$6,$7*
1,1,$1+$1,$8,$9*
0 Add four rect primitives between the rounded corners*
20,1,$1+$1,$2,$3,$4,$5,0*
20,1,$1+$1,$4,$5,$6,$7,0*
20,1,$1+$1,$6,$7,$8,$9,0*
20,1,$1+$1,$8,$9,$2,$3,0*%
G04 Aperture macros list end*
%ADD10C,1.804000*%
%ADD11C,2.829000*%
%ADD12RoundRect,0.102000X-1.312500X-1.312500X1.312500X-1.312500X1.312500X1.312500X-1.312500X1.312500X0*%
%ADD13C,1.400000*%
%ADD14RoundRect,0.102000X-0.765000X-0.765000X0.765000X-0.765000X0.765000X0.765000X-0.765000X0.765000X0*%
%ADD15C,1.734000*%
%ADD16C,3.200000*%
%ADD17R,1.700000X1.700000*%
%ADD18C,1.700000*%
G04 APERTURE END LIST*
D10*
%TO.C,Listener Switch*%
X142000000Y-63250000D03*
X142000000Y-58750000D03*
X135500000Y-63250000D03*
X135500000Y-58750000D03*
%TD*%
D11*
%TO.C,Power Switch*%
X138500000Y-134410000D03*
D12*
X133900000Y-134410000D03*
%TD*%
D13*
%TO.C,R4*%
X151500000Y-133000000D03*
X151500000Y-138080000D03*
%TD*%
%TO.C,R2*%
X125500000Y-132960000D03*
X125500000Y-138040000D03*
%TD*%
D14*
%TO.C,ESP32*%
X127252500Y-66701500D03*
D15*
X127252500Y-69241500D03*
X127252500Y-71781500D03*
X127252500Y-74321500D03*
X127252500Y-76861500D03*
X127252500Y-79401500D03*
X127252500Y-81941500D03*
X127252500Y-84481500D03*
X127252500Y-87021500D03*
X127252500Y-89561500D03*
X127252500Y-92101500D03*
X127252500Y-94641500D03*
X127252500Y-97181500D03*
X127252500Y-99721500D03*
X127252500Y-102261500D03*
X127252500Y-104801500D03*
X127252500Y-107341500D03*
X127252500Y-109881500D03*
X127252500Y-112421500D03*
X127252500Y-114961500D03*
X127252500Y-117501500D03*
X127252500Y-120041500D03*
X150112500Y-66701500D03*
X150112500Y-69241500D03*
X150112500Y-71781500D03*
X150112500Y-74321500D03*
X150112500Y-76861500D03*
X150112500Y-79401500D03*
X150112500Y-81941500D03*
X150112500Y-84481500D03*
X150112500Y-87021500D03*
X150112500Y-89561500D03*
X150112500Y-92101500D03*
X150112500Y-94641500D03*
X150112500Y-97181500D03*
X150112500Y-99721500D03*
X150112500Y-102261500D03*
X150112500Y-104801500D03*
X150112500Y-107341500D03*
X150112500Y-109881500D03*
X150112500Y-112421500D03*
X150112500Y-114961500D03*
X150112500Y-117501500D03*
X150112500Y-120041500D03*
%TD*%
D13*
%TO.C,R3*%
X149000000Y-138040000D03*
X149000000Y-132960000D03*
%TD*%
D16*
%TO.C,H1*%
X119000000Y-58000000D03*
%TD*%
D17*
%TO.C,J4*%
X150000000Y-62500000D03*
D18*
X150000000Y-59960000D03*
%TD*%
D16*
%TO.C,H4*%
X158000000Y-137500000D03*
%TD*%
D17*
%TO.C,J2*%
X127500000Y-62500000D03*
D18*
X127500000Y-59960000D03*
%TD*%
D13*
%TO.C,R1*%
X128000000Y-133000000D03*
X128000000Y-138080000D03*
%TD*%
D17*
%TO.C,J1*%
X131500000Y-62500000D03*
D18*
X131500000Y-59960000D03*
%TD*%
D16*
%TO.C,H3*%
X119000000Y-137500000D03*
%TD*%
%TO.C,H2*%
X158000000Y-58500000D03*
%TD*%
D17*
%TO.C,J3*%
X145975000Y-62500000D03*
D18*
X145975000Y-59960000D03*
%TD*%
D17*
%TO.C,USB C Lipo1*%
X144040000Y-115000000D03*
D18*
X141500000Y-115000000D03*
X138960000Y-115000000D03*
X136420000Y-115000000D03*
X133880000Y-115000000D03*
%TD*%
D17*
%TO.C,IMU1*%
X145325000Y-102500000D03*
D18*
X142785000Y-102500000D03*
X140245000Y-102500000D03*
X137705000Y-102500000D03*
X135165000Y-102500000D03*
X132625000Y-102500000D03*
%TD*%
D17*
%TO.C,UWB1*%
X145200000Y-75000000D03*
D18*
X142660000Y-75000000D03*
X140120000Y-75000000D03*
X137580000Y-75000000D03*
X135040000Y-75000000D03*
X132500000Y-75000000D03*
%TD*%
M02*
