M48
; DRILL file {KiCad 9.0.7} date 2026-03-20T11:39:54-0400
; FORMAT={-:-/ absolute / metric / decimal}
; #@! TF.CreationDate,2026-03-20T11:39:54-04:00
; #@! TF.GenerationSoftware,Kicad,Pcbnew,9.0.7
; #@! TF.FileFunction,Plated,1,2,PTH
FMAT,2
METRIC
; #@! TA.AperFunction,Plated,PTH,ComponentDrill
T1C0.700
; #@! TA.AperFunction,Plated,PTH,ComponentDrill
T2C1.000
; #@! TA.AperFunction,Plated,PTH,ComponentDrill
T3C1.020
; #@! TA.AperFunction,Plated,PTH,ComponentDrill
T4C1.750
%
G90
G05
T1
X125.5Y-132.96
X125.5Y-138.04
X128.0Y-133.0
X128.0Y-138.08
X149.0Y-132.96
X149.0Y-138.04
X151.5Y-133.0
X151.5Y-138.08
T2
X127.5Y-59.96
X127.5Y-62.5
X131.5Y-59.96
X131.5Y-62.5
X132.5Y-75.0
X132.625Y-102.5
X133.88Y-115.0
X135.04Y-75.0
X135.165Y-102.5
X135.5Y-58.75
X135.5Y-63.25
X136.42Y-115.0
X137.58Y-75.0
X137.705Y-102.5
X138.96Y-115.0
X140.12Y-75.0
X140.245Y-102.5
X141.5Y-115.0
X142.0Y-58.75
X142.0Y-63.25
X142.66Y-75.0
X142.785Y-102.5
X144.04Y-115.0
X145.2Y-75.0
X145.325Y-102.5
X145.975Y-59.96
X145.975Y-62.5
X150.0Y-59.96
X150.0Y-62.5
T3
X127.252Y-66.701
X127.252Y-69.242
X127.252Y-71.781
X127.252Y-74.322
X127.252Y-76.861
X127.252Y-79.401
X127.252Y-81.941
X127.252Y-84.481
X127.252Y-87.021
X127.252Y-89.561
X127.252Y-92.102
X127.252Y-94.641
X127.252Y-97.181
X127.252Y-99.721
X127.252Y-102.261
X127.252Y-104.801
X127.252Y-107.341
X127.252Y-109.881
X127.252Y-112.421
X127.252Y-114.962
X127.252Y-117.501
X127.252Y-120.041
X150.112Y-66.701
X150.112Y-69.242
X150.112Y-71.781
X150.112Y-74.322
X150.112Y-76.861
X150.112Y-79.401
X150.112Y-81.941
X150.112Y-84.481
X150.112Y-87.021
X150.112Y-89.561
X150.112Y-92.102
X150.112Y-94.641
X150.112Y-97.181
X150.112Y-99.721
X150.112Y-102.261
X150.112Y-104.801
X150.112Y-107.341
X150.112Y-109.881
X150.112Y-112.421
X150.112Y-114.962
X150.112Y-117.501
X150.112Y-120.041
T4
X133.9Y-134.41
X138.5Y-134.41
M30
