%TF.GenerationSoftware,KiCad,Pcbnew,9.0.7*%
%TF.CreationDate,2026-03-20T11:38:40-04:00*%
%TF.ProjectId,controller,636f6e74-726f-46c6-9c65-722e6b696361,2*%
%TF.SameCoordinates,Original*%
%TF.FileFunction,Copper,L2,Bot*%
%TF.FilePolarity,Positive*%
%FSLAX46Y46*%
G04 Gerber Fmt 4.6, Leading zero omitted, Abs format (unit mm)*
G04 Created by KiCad (PCBNEW 9.0.7) date 2026-03-20 11:38:40*
%MOMM*%
%LPD*%
G01*
G04 APERTURE LIST*
%TA.AperFunction,ComponentPad*%
%ADD10C,1.600000*%
%TD*%
%TA.AperFunction,ComponentPad*%
%ADD11C,2.625000*%
%TD*%
%TA.AperFunction,ComponentPad*%
%ADD12R,2.625000X2.625000*%
%TD*%
%TA.AperFunction,ComponentPad*%
%ADD13C,1.400000*%
%TD*%
%TA.AperFunction,ComponentPad*%
%ADD14R,1.530000X1.530000*%
%TD*%
%TA.AperFunction,ComponentPad*%
%ADD15C,1.530000*%
%TD*%
%TA.AperFunction,ComponentPad*%
%ADD16R,1.700000X1.700000*%
%TD*%
%TA.AperFunction,ComponentPad*%
%ADD17C,1.700000*%
%TD*%
%TA.AperFunction,Conductor*%
%ADD18C,0.200000*%
%TD*%
G04 APERTURE END LIST*
D10*
%TO.P,Listener Switch,4,4*%
%TO.N,unconnected-(S1-Pad4)*%
X142000000Y-63250000D03*
%TO.P,Listener Switch,2,2*%
%TO.N,Net-(ESP32-GND1)*%
X142000000Y-58750000D03*
%TO.P,Listener Switch,3,3*%
%TO.N,Net-(ESP32-MTMS{slash}GPIO42)*%
X135500000Y-63250000D03*
%TO.P,Listener Switch,1,1*%
%TO.N,unconnected-(S1-Pad1)*%
X135500000Y-58750000D03*
%TD*%
D11*
%TO.P,Power Switch,2*%
%TO.N,Net-(USB C Lipo1-Pin_5)*%
X138500000Y-134410000D03*
D12*
%TO.P,Power Switch,1*%
%TO.N,Net-(ESP32-5V0)*%
X133900000Y-134410000D03*
%TD*%
D13*
%TO.P,R4,1*%
%TO.N,Net-(ESP32-GPIO17)*%
X151500000Y-133000000D03*
%TO.P,R4,2*%
%TO.N,Net-(ESP32-3V3)*%
X151500000Y-138080000D03*
%TD*%
%TO.P,R2,1*%
%TO.N,Net-(ESP32-GPIO6)*%
X125500000Y-132960000D03*
%TO.P,R2,2*%
%TO.N,Net-(ESP32-3V3)*%
X125500000Y-138040000D03*
%TD*%
D14*
%TO.P,ESP32,J1_1,3V3*%
%TO.N,Net-(ESP32-3V3)*%
X127252500Y-66701500D03*
D15*
%TO.P,ESP32,J1_2,3V3.*%
%TO.N,unconnected-(ESP32-3V3.-PadJ1_2)*%
X127252500Y-69241500D03*
%TO.P,ESP32,J1_3,RST*%
%TO.N,unconnected-(ESP32-RST-PadJ1_3)*%
X127252500Y-71781500D03*
%TO.P,ESP32,J1_4,GPIO4*%
%TO.N,Net-(ESP32-GPIO4)*%
X127252500Y-74321500D03*
%TO.P,ESP32,J1_5,GPIO5*%
%TO.N,unconnected-(ESP32-GPIO5-PadJ1_5)*%
X127252500Y-76861500D03*
%TO.P,ESP32,J1_6,GPIO6*%
%TO.N,Net-(ESP32-GPIO6)*%
X127252500Y-79401500D03*
%TO.P,ESP32,J1_7,GPIO7*%
%TO.N,unconnected-(ESP32-GPIO7-PadJ1_7)*%
X127252500Y-81941500D03*
%TO.P,ESP32,J1_8,GPIO15*%
%TO.N,Net-(ESP32-GPIO15)*%
X127252500Y-84481500D03*
%TO.P,ESP32,J1_9,GPIO16*%
%TO.N,unconnected-(ESP32-GPIO16-PadJ1_9)*%
X127252500Y-87021500D03*
%TO.P,ESP32,J1_10,GPIO17*%
%TO.N,Net-(ESP32-GPIO17)*%
X127252500Y-89561500D03*
%TO.P,ESP32,J1_11,GPIO18*%
%TO.N,unconnected-(ESP32-GPIO18-PadJ1_11)*%
X127252500Y-92101500D03*
%TO.P,ESP32,J1_12,GPIO8*%
%TO.N,unconnected-(ESP32-GPIO8-PadJ1_12)*%
X127252500Y-94641500D03*
%TO.P,ESP32,J1_13,GPIO3*%
%TO.N,unconnected-(ESP32-GPIO3-PadJ1_13)*%
X127252500Y-97181500D03*
%TO.P,ESP32,J1_14,GPIO46*%
%TO.N,unconnected-(ESP32-GPIO46-PadJ1_14)*%
X127252500Y-99721500D03*
%TO.P,ESP32,J1_15,GPIO9*%
%TO.N,unconnected-(ESP32-GPIO9-PadJ1_15)*%
X127252500Y-102261500D03*
%TO.P,ESP32,J1_16,GPIO10*%
%TO.N,unconnected-(ESP32-GPIO10-PadJ1_16)*%
X127252500Y-104801500D03*
%TO.P,ESP32,J1_17,GPIO11*%
%TO.N,unconnected-(ESP32-GPIO11-PadJ1_17)*%
X127252500Y-107341500D03*
%TO.P,ESP32,J1_18,GPIO12*%
%TO.N,unconnected-(ESP32-GPIO12-PadJ1_18)*%
X127252500Y-109881500D03*
%TO.P,ESP32,J1_19,GPIO13*%
%TO.N,unconnected-(ESP32-GPIO13-PadJ1_19)*%
X127252500Y-112421500D03*
%TO.P,ESP32,J1_20,GPIO14*%
%TO.N,unconnected-(ESP32-GPIO14-PadJ1_20)*%
X127252500Y-114961500D03*
%TO.P,ESP32,J1_21,5V0*%
%TO.N,Net-(ESP32-5V0)*%
X127252500Y-117501500D03*
%TO.P,ESP32,J1_22,GND3*%
%TO.N,Net-(ESP32-GND3)*%
X127252500Y-120041500D03*
%TO.P,ESP32,J3_1,GND*%
%TO.N,unconnected-(ESP32-GND-PadJ3_1)*%
X150112500Y-66701500D03*
%TO.P,ESP32,J3_2,U0TXD/GPIO43*%
%TO.N,Net-(ESP32-U0TXD{slash}GPIO43)*%
X150112500Y-69241500D03*
%TO.P,ESP32,J3_3,U0RXD/GPIO44*%
%TO.N,Net-(ESP32-U0RXD{slash}GPIO44)*%
X150112500Y-71781500D03*
%TO.P,ESP32,J3_4,GPIO1*%
%TO.N,Net-(ESP32-GPIO1)*%
X150112500Y-74321500D03*
%TO.P,ESP32,J3_5,GPIO2*%
%TO.N,Net-(ESP32-GPIO2)*%
X150112500Y-76861500D03*
%TO.P,ESP32,J3_6,MTMS/GPIO42*%
%TO.N,Net-(ESP32-MTMS{slash}GPIO42)*%
X150112500Y-79401500D03*
%TO.P,ESP32,J3_7,MTDI/GPIO41*%
%TO.N,unconnected-(ESP32-MTDI{slash}GPIO41-PadJ3_7)*%
X150112500Y-81941500D03*
%TO.P,ESP32,J3_8,MTDO/GPIO40*%
%TO.N,unconnected-(ESP32-MTDO{slash}GPIO40-PadJ3_8)*%
X150112500Y-84481500D03*
%TO.P,ESP32,J3_9,MTCK/GPIO39*%
%TO.N,unconnected-(ESP32-MTCK{slash}GPIO39-PadJ3_9)*%
X150112500Y-87021500D03*
%TO.P,ESP32,J3_10,GPIO38*%
%TO.N,unconnected-(ESP32-GPIO38-PadJ3_10)*%
X150112500Y-89561500D03*
%TO.P,ESP32,J3_11,GPIO37*%
%TO.N,unconnected-(ESP32-GPIO37-PadJ3_11)*%
X150112500Y-92101500D03*
%TO.P,ESP32,J3_12,GPIO36*%
%TO.N,unconnected-(ESP32-GPIO36-PadJ3_12)*%
X150112500Y-94641500D03*
%TO.P,ESP32,J3_13,GPIO35*%
%TO.N,unconnected-(ESP32-GPIO35-PadJ3_13)*%
X150112500Y-97181500D03*
%TO.P,ESP32,J3_14,GPIO0*%
%TO.N,unconnected-(ESP32-GPIO0-PadJ3_14)*%
X150112500Y-99721500D03*
%TO.P,ESP32,J3_15,GPIO45*%
%TO.N,unconnected-(ESP32-GPIO45-PadJ3_15)*%
X150112500Y-102261500D03*
%TO.P,ESP32,J3_16,GPIO48*%
%TO.N,Net-(ESP32-GPIO48)*%
X150112500Y-104801500D03*
%TO.P,ESP32,J3_17,GPIO47*%
%TO.N,unconnected-(ESP32-GPIO47-PadJ3_17)*%
X150112500Y-107341500D03*
%TO.P,ESP32,J3_18,GPIO21*%
%TO.N,Net-(ESP32-GPIO21)*%
X150112500Y-109881500D03*
%TO.P,ESP32,J3_19,USB_D+/GPIO20*%
%TO.N,unconnected-(ESP32-USB_D+{slash}GPIO20-PadJ3_19)*%
X150112500Y-112421500D03*
%TO.P,ESP32,J3_20,USB_D-/GPIO19*%
%TO.N,unconnected-(ESP32-USB_D-{slash}GPIO19-PadJ3_20)*%
X150112500Y-114961500D03*
%TO.P,ESP32,J3_21,GND1*%
%TO.N,Net-(ESP32-GND1)*%
X150112500Y-117501500D03*
%TO.P,ESP32,J3_22,GND2*%
%TO.N,unconnected-(ESP32-GND2-PadJ3_22)*%
X150112500Y-120041500D03*
%TD*%
D13*
%TO.P,R3,1*%
%TO.N,Net-(ESP32-3V3)*%
X149000000Y-138040000D03*
%TO.P,R3,2*%
%TO.N,Net-(ESP32-GPIO15)*%
X149000000Y-132960000D03*
%TD*%
D16*
%TO.P,J4,1,Pin_1*%
%TO.N,Net-(ESP32-GPIO17)*%
X150000000Y-62500000D03*
D17*
%TO.P,J4,2,Pin_2*%
%TO.N,Net-(ESP32-GND3)*%
X150000000Y-59960000D03*
%TD*%
D16*
%TO.P,J2,1,Pin_1*%
%TO.N,Net-(ESP32-GPIO6)*%
X127500000Y-62500000D03*
D17*
%TO.P,J2,2,Pin_2*%
%TO.N,Net-(ESP32-GND3)*%
X127500000Y-59960000D03*
%TD*%
D13*
%TO.P,R1,1*%
%TO.N,Net-(ESP32-GPIO4)*%
X128000000Y-133000000D03*
%TO.P,R1,2*%
%TO.N,Net-(ESP32-3V3)*%
X128000000Y-138080000D03*
%TD*%
D16*
%TO.P,J1,1,Pin_1*%
%TO.N,Net-(ESP32-GPIO4)*%
X131500000Y-62500000D03*
D17*
%TO.P,J1,2,Pin_2*%
%TO.N,Net-(ESP32-GND3)*%
X131500000Y-59960000D03*
%TD*%
D16*
%TO.P,J3,1,Pin_1*%
%TO.N,Net-(ESP32-GPIO15)*%
X145975000Y-62500000D03*
D17*
%TO.P,J3,2,Pin_2*%
%TO.N,Net-(ESP32-GND3)*%
X145975000Y-59960000D03*
%TD*%
D16*
%TO.P,USB C Lipo1,1,Pin_1*%
%TO.N,unconnected-(USB C Lipo1-Pin_1-Pad1)*%
X144040000Y-115000000D03*
D17*
%TO.P,USB C Lipo1,2,Pin_2*%
%TO.N,Net-(ESP32-GND3)*%
X141500000Y-115000000D03*
%TO.P,USB C Lipo1,3,Pin_3*%
%TO.N,unconnected-(USB C Lipo1-Pin_3-Pad3)*%
X138960000Y-115000000D03*
%TO.P,USB C Lipo1,4,Pin_4*%
%TO.N,unconnected-(USB C Lipo1-Pin_4-Pad4)*%
X136420000Y-115000000D03*
%TO.P,USB C Lipo1,5,Pin_5*%
%TO.N,Net-(USB C Lipo1-Pin_5)*%
X133880000Y-115000000D03*
%TD*%
D16*
%TO.P,IMU1,1,Pin_1*%
%TO.N,unconnected-(IMU1-Pin_1-Pad1)*%
X145325000Y-102500000D03*
D17*
%TO.P,IMU1,2,Pin_2*%
%TO.N,Net-(ESP32-GPIO48)*%
X142785000Y-102500000D03*
%TO.P,IMU1,3,Pin_3*%
%TO.N,Net-(ESP32-GPIO21)*%
X140245000Y-102500000D03*
%TO.P,IMU1,4,Pin_4*%
%TO.N,Net-(ESP32-GND1)*%
X137705000Y-102500000D03*
%TO.P,IMU1,5,Pin_5*%
%TO.N,unconnected-(IMU1-Pin_5-Pad5)*%
X135165000Y-102500000D03*
%TO.P,IMU1,6,Pin_6*%
%TO.N,Net-(ESP32-3V3)*%
X132625000Y-102500000D03*
%TD*%
D16*
%TO.P,UWB1,1,Pin_1*%
%TO.N,Net-(ESP32-GND1)*%
X145200000Y-75000000D03*
D17*
%TO.P,UWB1,2,Pin_2*%
%TO.N,Net-(ESP32-GPIO2)*%
X142660000Y-75000000D03*
%TO.P,UWB1,3,Pin_3*%
%TO.N,Net-(ESP32-GPIO1)*%
X140120000Y-75000000D03*
%TO.P,UWB1,4,Pin_4*%
%TO.N,Net-(ESP32-U0RXD{slash}GPIO44)*%
X137580000Y-75000000D03*
%TO.P,UWB1,5,Pin_5*%
%TO.N,Net-(ESP32-U0TXD{slash}GPIO43)*%
X135040000Y-75000000D03*
%TO.P,UWB1,6,Pin_6*%
%TO.N,Net-(ESP32-3V3)*%
X132500000Y-75000000D03*
%TD*%
D18*
%TO.N,Net-(ESP32-GPIO17)*%
X150500000Y-64500000D02*
X150500000Y-63000000D01*
X149046500Y-130546500D02*
X149046500Y-115469260D01*
X136554000Y-102976760D02*
X136554000Y-98863000D01*
X151500000Y-133000000D02*
X149046500Y-130546500D01*
X141500000Y-73500000D02*
X150500000Y-64500000D01*
X150500000Y-63000000D02*
X150000000Y-62500000D01*
X149046500Y-115469260D02*
X136554000Y-102976760D01*
X141500000Y-75314000D02*
X141500000Y-73500000D01*
X127252500Y-89561500D02*
X141500000Y-75314000D01*
X136554000Y-98863000D02*
X127252500Y-89561500D01*
%TO.N,Net-(ESP32-GND1)*%
X145200000Y-95005000D02*
X137705000Y-102500000D01*
X145200000Y-75000000D02*
X145200000Y-95005000D01*
%TO.N,Net-(ESP32-GND3)*%
X131000000Y-59960000D02*
X131500000Y-59960000D01*
X130500000Y-60460000D02*
X131000000Y-59960000D01*
X145500000Y-59960000D02*
X146000000Y-60460000D01*
X149500000Y-60460000D02*
X150000000Y-59960000D01*
X132500000Y-59960000D02*
X133000000Y-60460000D01*
X145000000Y-60460000D02*
X145500000Y-59960000D01*
X124500000Y-117289000D02*
X124500000Y-112250000D01*
X124500000Y-112250000D02*
X124500000Y-60500000D01*
X125040000Y-59960000D02*
X127500000Y-59960000D01*
X146000000Y-60460000D02*
X149500000Y-60460000D01*
X125250000Y-112250000D02*
X124500000Y-112250000D01*
X127252500Y-120041500D02*
X124500000Y-117289000D01*
X128000000Y-60460000D02*
X130500000Y-60460000D01*
X126250000Y-111250000D02*
X125250000Y-112250000D01*
X127500000Y-59960000D02*
X128000000Y-60460000D01*
X131500000Y-59960000D02*
X132500000Y-59960000D01*
X133000000Y-60460000D02*
X145000000Y-60460000D01*
X124500000Y-60500000D02*
X125040000Y-59960000D01*
X141500000Y-115000000D02*
X141500000Y-111250000D01*
X141500000Y-111250000D02*
X126250000Y-111250000D01*
%TO.N,Net-(ESP32-GPIO15)*%
X134688240Y-103651000D02*
X136661140Y-103651000D01*
X126186500Y-90003052D02*
X126810948Y-90627500D01*
X136191000Y-73809000D02*
X146000000Y-64000000D01*
X134014000Y-96947448D02*
X134014000Y-102976760D01*
X134014000Y-102976760D02*
X134688240Y-103651000D01*
X148500000Y-115489860D02*
X148500000Y-132460000D01*
X127694052Y-90627500D02*
X134014000Y-96947448D01*
X148500000Y-132460000D02*
X149000000Y-132960000D01*
X136661140Y-103651000D02*
X148500000Y-115489860D01*
X136191000Y-75543000D02*
X136191000Y-73809000D01*
X126810948Y-90627500D02*
X127694052Y-90627500D01*
X146000000Y-63000000D02*
X145500000Y-62500000D01*
X127252500Y-84481500D02*
X136191000Y-75543000D01*
X126186500Y-85547500D02*
X126186500Y-90003052D01*
X146000000Y-64000000D02*
X146000000Y-63000000D01*
X127252500Y-84481500D02*
X126186500Y-85547500D01*
%TO.N,Net-(ESP32-5V0)*%
X127252500Y-117501500D02*
X133900000Y-124149000D01*
X133900000Y-124149000D02*
X133900000Y-134000000D01*
%TD*%
M02*
